<svg width="203" height="116" viewBox="0 0 203 116" fill="none" xmlns="http://www.w3.org/2000/svg">
<path d="M200.016 88.6949C225.825 49.5042 77.4257 90.5688 0 116H175.014L200.016 88.6949Z" fill="#7F7F7F"/>
<path d="M195.324 90.1095C218.88 55.2733 83.4358 91.7752 12.7695 114.381H172.505L195.324 90.1095Z" fill="#7F7F7F"/>
<path d="M13.8125 104.72C53.7666 90.5424 53.5517 33.8334 48.4501 7.2511C69.716 22.0728 77.7175 67.6655 79.06 88.6091L13.8125 104.72Z" fill="#7F7F7F"/>
<path d="M150.752 70.8847C133.997 11.598 77.181 2.68354 50.8672 5.63713C74.7107 19.1694 87.1158 63.9037 90.3379 84.5793L150.752 70.8847Z" fill="#7F7F7F"/>
<path d="M25.8959 7.24973C25.8959 8.53857 19.9887 14.2309 17.0352 16.916C17.8407 16.916 29.118 15.305 30.7291 15.305C32.3401 15.305 30.7291 24.1658 33.9512 22.5547C37.1733 20.9437 42.812 10.4718 42.812 6.4442C42.812 2.41658 26.7015 0 25.8959 0C25.0904 0 25.8959 5.63868 25.8959 7.24973Z" fill="#7F7F7F"/>
</svg>
